<svg width="37" height="23" viewBox="0 0 37 23" fill="none" xmlns="http://www.w3.org/2000/svg">
<path d="M6.16797 1.19482H29.9317" stroke="#1E1E1E" stroke-width="1.5" stroke-linecap="round"/>
<path d="M29.9321 1C30.3051 1.61858 30.534 2.23203 30.76 2.90997C30.9733 3.54989 31.2612 4.16075 31.4688 4.7983C31.8037 5.82703 32.3505 6.92291 32.4589 8.00684C32.5444 8.86128 32.8328 9.66527 33 10.5012C33.1827 11.4148 33.3075 12.405 33.5573 13.2931C33.755 13.9959 33.9431 14.7214 34.0984 15.4357C34.2737 16.2421 34.6479 17.1292 34.6989 17.9463C34.7511 18.7801 35.0113 19.5603 35.1913 20.3703C35.2589 20.6742 35.4835 21.569 35.4835 21.2576" stroke="#1E1E1E" stroke-width="1.5" stroke-linecap="round"/>
<path d="M1.10352 21.4524H34.996" stroke="#1E1E1E" stroke-width="1.5" stroke-linecap="round"/>
<path d="M6.16796 1.19482C5.21817 2.40364 5.25575 4.28616 4.99925 5.72898C4.79055 6.90291 4.43556 8.10867 4.3175 9.28921C4.21549 10.3093 3.90647 11.3319 3.63576 12.3192C3.41339 13.1302 3.33407 13.9593 3.10551 14.7756C2.93854 15.372 2.79622 15.9781 2.66183 16.5828C2.5179 17.2305 2.13482 17.8712 2.07748 18.5307C2.03629 19.0044 1.90903 19.5817 1.7853 20.0457C1.71372 20.3141 1.5673 20.5249 1.44443 20.7707C1.38773 20.8841 1.29834 21.3583 1.29834 21.0629" stroke="#1E1E1E" stroke-width="1.5" stroke-linecap="round"/>
<path d="M10.1613 4.70093C10.1613 4.85231 10.0625 5.50709 10.2208 5.57746C10.4337 5.67204 10.6483 5.71539 10.6483 5.42055C10.6483 4.38022 10.1754 5.31118 10.4535 5.45842C10.5186 5.49287 10.9296 5.51757 10.9296 5.43137C10.9296 5.3375 10.3713 5.38267 10.3182 5.38267C9.8216 5.38267 10.5509 6.31317 10.5509 5.77224" stroke="#1E1E1E" stroke-width="1.5" stroke-linecap="round"/>
<path d="M24.4783 4.70098C24.1807 4.77538 24.4143 5.53974 24.7217 5.5721C25.2112 5.62362 24.9593 4.67385 24.5378 4.609C24.094 4.54072 24.2912 5.16221 24.6514 5.18794C25.0185 5.21416 25.2551 4.89576 24.7704 4.89576" stroke="#1E1E1E" stroke-width="1.5" stroke-linecap="round"/>
<path d="M10.6484 5.47998C10.797 9.63957 15.3984 11.3241 18.9268 11.2261C20.5913 11.1799 22.0538 10.1715 23.0119 8.89412C23.5028 8.23959 23.6931 7.51384 24.0886 6.82183C24.212 6.60582 24.1804 6.31883 24.3591 6.14008C24.4071 6.09212 24.7066 5.8359 24.5755 5.96694" stroke="#1E1E1E" stroke-width="1.5" stroke-linecap="round"/>
</svg>
