<?xml version="1.0" encoding="UTF-8"?>
<svg id="Capa_1" data-name="Capa 1" xmlns="http://www.w3.org/2000/svg" viewBox="0 0 23.73 21.35">
  <defs>
    <style>
      .cls-1 {
        fill: #1e1e1e;
        stroke-width: 0px;
      }

      .cls-2 {
        fill: none;
        stroke: #1e1e1e;
        stroke-linecap: round;
        stroke-width: 1.5px;
      }
    </style>
  </defs>
  <path class="cls-2" d="M7.8.9s-.03-.11.02-.11c1.06-.08,7.39-.36,11.69,3.91,4.7,4.66,5,12.53-1.5,14.75-6.5,2.22-14.28,1.15-16.29-2.48C.47,14.68-.3,9.58,4.15,6.38c.54-.38,1.13-.68,1.73-.95,1.42-.62,4.63-2.36,1.91-4.53h0Z"/>
  <path class="cls-2" d="M12.81,3.37s1.97.77,1.84,2.95"/>
  <path class="cls-2" d="M12.27,4.73s.41,1.05.16,1.72"/>
  <path class="cls-2" d="M10.58,3.74s.6,1.88-.73,2.95"/>
  <path class="cls-2" d="M16.06,10.01s1.37,0,2,1.18"/>
  <path class="cls-2" d="M6.63,10.01s-.93-.03-1.63,1.05"/>
  <path class="cls-2" d="M9.69,14.91s.67,1.46,2.18,1.46,2.37-1.21,2.37-1.21"/>
  <ellipse class="cls-1" cx="7.76" cy="13.07" rx=".75" ry="1.06"/>
  <ellipse class="cls-1" cx="16.06" cy="13.07" rx=".75" ry="1.06"/>
</svg>