<?xml version="1.0" encoding="UTF-8"?>
<svg id="Capa_1" data-name="Capa 1" xmlns="http://www.w3.org/2000/svg" viewBox="0 0 24 24">
  <defs>
    <style>
      .cls-1 {
        fill: none;
        stroke: #1e1e1e;
        stroke-linecap: round;
        stroke-width: 1.5px;
      }

      .cls-2 {
        fill: #fff;
        stroke-width: 0px;
      }
    </style>
  </defs>
  <rect class="cls-2" width="24" height="24"/>
  <g>
    <path class="cls-1" d="M4.29,5.61h15.12"/>
    <path class="cls-1" d="M19.41,5.49c.24.39.38.78.53,1.22.14.41.32.8.45,1.2.21.65.56,1.35.63,2.04.05.54.24,1.06.34,1.59.12.58.2,1.21.35,1.78.13.45.25.91.34,1.36.11.51.35,1.08.38,1.6.03.53.2,1.03.31,1.54.04.19.19.76.19.56"/>
    <path class="cls-1" d="M1.07,18.51h21.56"/>
    <path class="cls-1" d="M4.29,5.61c-.6.77-.58,1.97-.74,2.88-.13.75-.36,1.51-.43,2.27-.06.65-.26,1.3-.43,1.93-.14.52-.19,1.04-.34,1.56-.11.38-.2.77-.28,1.15-.09.41-.34.82-.37,1.24-.03.3-.11.67-.19.96-.05.17-.14.3-.22.46-.04.07-.09.37-.09.19"/>
    <path class="cls-1" d="M6.83,7.84c0,.1-.06.51.04.56.14.06.27.09.27-.1,0-.66-.3-.07-.12.02.04.02.3.04.3-.02s-.36-.03-.39-.03c-.32,0,.15.59.15.25"/>
    <path class="cls-1" d="M15.94,7.84c-.19.05-.04.53.15.55.31.03.15-.57-.12-.61-.28-.04-.16.35.07.37s.38-.19.08-.19"/>
    <path class="cls-1" d="M7.14,8.34c.09,2.65,3.02,3.72,5.27,3.66,1.06-.03,1.99-.67,2.6-1.48.31-.42.43-.88.69-1.32.08-.14.06-.32.17-.43.03-.03.22-.19.14-.11"/>
  </g>
</svg>